<svg height="39pt" viewBox="-13 0 512 512.00173" width="39pt" xmlns="http://www.w3.org/2000/svg"><path d="m380.984375 72.90625c0 4.710938-3.820313 8.535156-8.535156 8.535156-4.714844 0-8.535157-3.824218-8.535157-8.535156 0-4.714844 3.820313-8.539062 8.535157-8.539062 4.714843 0 8.535156 3.824218 8.535156 8.539062zm0 0"/><path d="m456.367188 218.910156c-2.265626-12.65625-12.339844-22.347656-25.070313-24.121094l-56.585937-7.890624-.480469-14.582032c-.132813-4.160156-3.625-7.417968-7.769531-7.28125-4.15625.136719-7.417969 3.617188-7.28125 7.773438l1.574218 47.867187c.417969 12.730469-2.660156 25.332031-8.898437 36.449219-1.039063 1.855469-1.25 4.0625-.574219 6.074219.675781 2.015625 2.167969 3.652343 4.117188 4.507812l56.585937 24.820313c3.859375 1.691406 6.179687 5.648437 5.765625 9.84375l-6.417969 65.511718c-.390625 3.972657-3.238281 7.355469-7.085937 8.417969l-29.109375 8.027344c-2.996094.824219-6.0625.328125-8.640625-1.40625-2.574219-1.730469-4.195313-4.382813-4.5625-7.464844l-1.445313-12.199219h15.75c10.644531 0 19.304688-8.65625 19.304688-19.304687v-11.464844c0-7.492187-3.464844-14.328125-9.507813-18.757812-6.039062-4.433594-13.605468-5.679688-20.75-3.429688l-24.128906 7.605469c-9.078125 2.863281-18.992188-1.113281-23.582031-9.449219l-7.136719-12.957031c-1.613281-2.933594-4.96875-4.449219-8.238281-3.71875l-146.9375 32.847656c-3.152344.703125-5.507813 3.34375-5.84375 6.558594-3.015625 28.71875-16.855469 46.390625-41.136719 52.53125-8.191406 2.070312-15.054688 7.25-19.324219 14.589844-4.320312 7.425781-5.441406 16.074218-3.15625 24.351562l14.457031 52.417969c.550782 2.003906 1.910157 3.6875 3.746094 4.65625l25.28125 13.324219c.132813.144531.257813.296875.390625.441406l2.507813 2.652344-34.714844-.1875c-5.4375-.027344-10.695312-2.3125-14.429688-6.261719l-6.898437-7.300781c-2.785156-2.953125-4.742187-6.601563-5.652344-10.554688l-14.464843-62.550781c-.996094-4.300781-.9375-8.832031.171874-13.105469l19.207032-74.007812c.71875-2.773438-.195313-5.710938-2.363282-7.585938-5.332031-4.613281-9.878906-9.964844-13.511718-15.898437-2.171875-3.546875-6.804688-4.664063-10.351563-2.492188s-4.664062 6.808594-2.492187 10.355469c3.625 5.921875 7.988281 11.359375 13.003906 16.21875l-18.066406 69.625c-1.714844 6.617188-1.808594 13.628906-.269532 20.285156l14.464844 62.550782c1.515625 6.554687 4.757813 12.605468 9.378906 17.5l6.894532 7.300781c6.546875 6.929687 15.765625 10.933593 25.296875 10.984375l40.417969.214844h.082031c3.355469 0 6.429687-1.089844 8.875-2.992188 4.679687 2.269531 9.84375 3.507812 15.109375 3.535156l40.414062.214844h.085938c6.722656 0 12.328125-4.371094 13.964844-10.90625 1.640624-6.558594-1.277344-13.082031-7.257813-16.234375l-30.6875-16.167969-13.589844-49.273437c-1.195312-4.34375-.609375-8.882813 1.65625-12.773438 2.214844-3.808593 5.765625-6.496093 9.996094-7.566406 33.308594-8.421875 51.652344-34.183594 53.046875-74.507813.015625-.371093-.007812-.734374-.046875-1.09375l70.515625-15.765624 4.410156 8.011718c8.039063 14.597656 25.40625 21.554688 41.300782 16.546875l24.132812-7.605469c2.515625-.792968 5.1875-.355468 7.316406 1.207032s3.351563 3.976562 3.351563 6.617187v11.464844c0 2.34375-1.902344 4.246094-4.246094 4.246094h-24.222656c-2.152344 0-4.199219.921875-5.628907 2.527343-1.429687 1.609376-2.101562 3.75-1.847656 5.890626l2.445313 20.613281c.878906 7.402343 4.929687 14.03125 11.113281 18.191406 6.1875 4.160156 13.859375 5.40625 21.042969 3.425781l29.113281-8.027344c9.8125-2.707031 17.074219-11.335937 18.066406-21.46875l4.878906-49.773437c1.226563-.050781 2.457032-.386719 3.578126-1.066406l18.15625-10.980469c10.417968-6.304688 15.976562-18.589844 13.832031-30.570312zm-356.050782 199.746094c-1.195312-4.34375-.609375-8.878906 1.65625-12.773438.78125-1.339843 1.734375-2.535156 2.816406-3.574218-.136718 3.738281.199219 7.492187 1.042969 11.140625l13.226563 57.195312-5.148438-2.714843zm72.445313-34.179688c-8.1875 2.070313-15.050781 7.25-19.320313 14.589844-4.320312 7.425782-5.441406 16.074219-3.160156 24.351563l14.457031 52.417969c.554688 2.003906 1.910157 3.6875 3.75 4.65625l31.1875 16.433593-37.726562-.203125c-3.496094-.015625-6.917969-.980468-9.910157-2.710937-.796874-4.152344-3.425781-7.792969-7.445312-9.914063l-5.679688-2.992187c-1.878906-2.523438-3.230468-5.414063-3.945312-8.5l-14.464844-62.546875c-.992187-4.304688-.933594-8.835938.175782-13.113282.125-.484374.199218-.972656.226562-1.457031 23.730469-9.09375 38.394531-28.6875 42.792969-57.316406l50.621093-11.316406c-1.835937 31.730469-15.804687 51.109375-41.558593 57.621093zm236.140625-109.742187-25.097656-11.007813 11.496093-7.535156c3.515625-2.304687 7.789063-2.78125 11.726563-1.308594 3.9375 1.472657 6.851562 4.636719 7.992187 8.683594 1.347657 4.769532-1.394531 9.734375-6.117187 11.167969zm36.234375 19.90625-12.296875 7.4375c.210937-7.664063-3.125-14.847656-8.855469-19.636719 5.511719-5.972656 7.894531-14.585937 5.53125-22.964844-2.457031-8.714843-8.730469-15.527343-17.210937-18.699218-8.480469-3.171875-17.6875-2.144532-25.257813 2.816406l-12.304687 8.066406c-1.535157 1.003906-3.148438 1.828125-4.832032 2.464844 4.25-10.757812 6.277344-22.304688 5.894532-33.945312l-.589844-18.003907 54.003906 7.527344c6.257812.875 11.210938 5.640625 12.324219 11.859375l10.394531 58.050781c1.054688 5.890625-1.679688 11.929688-6.800781 15.027344zm0 0"/><path d="m484.617188 75.167969c-.289063-2.910157-2.234376-5.386719-4.988282-6.359375l-103.832031-36.601563c-.949219-3.089843-2.46875-7.617187-4.464844-12.210937-5.65625-13.03125-12.117187-19.566406-19.757812-19.9726565-5.96875-.3124995-14.042969 2.4531245-18.664063 17.4492185-.722656 2.339844-1.351562 4.964844-1.894531 7.824219-18.871094-4.808594-57.523437-10.746094-70.476563 16.519531-7.882812 16.589844-9.519531 31.144532-10.835937 42.835938-1.011719 8.992187-1.8125 16.097656-5.136719 19.425781-3.765625 3.765625-20.09375 9.421875-33.214844 13.964844-.46875.164062-.941406.332031-1.410156.492187-.304687-1.71875-.566406-3.460937-.757812-5.222656-2.171875-19.753906 3.332031-39.242188 15.097656-53.472656 1.722656-2.085938 2.195312-4.933594 1.238281-7.464844-.960937-2.53125-3.203125-4.351562-5.875-4.773438-5.855469-.917968-11.761719-1.058593-17.554687-.421874-30.917969 3.398437-55.898438 27.960937-62.832032 61.460937-.296874.292969-.585937.582031-.867187.875-17.15625 17.667969-24.742187 42.878906-22.535156 67.503906l-14.277344 3.027344c-.050781.011719-.101563.019531-.152344.035156-3.5.816407-6.925781 1.84375-10.183593 3.046875-.132813.046875-.265626.101563-.394532.15625l-7.980468 3.472656c-.125.054688-.25.113282-.371094.171876-1.445313.726562-2.859375 1.5-4.253906 2.296874-1.632813-7.921874-1.824219-16.121093-.511719-24.136718l2.804687-17.117188c2.78125-13.5-.835937-27.167968-9.941406-37.523437-9.140625-10.402344-22.300781-15.746094-36.109375-14.65625l-27.546875 2.171875c-2.707031.214844-5.089844 1.871094-6.234375 4.332031-1.144531 2.464844-.875 5.351563.707031 7.558594l17.855469 24.925781c5.625 7.851562 6.773437 18.246094 3 27.136719-10.398437 24.488281-1.929687 52.996093 19.632813 67.996093-4.015626 9.265626-6.441407 19.28125-6.992188 29.648438-.046875.847656-.078125 1.695312-.101562 2.539062-.097657 4.050782.101562 8.113282.585937 12.085938.46875 3.816406 3.714844 6.617188 7.464844 6.617188.304687 0 .613281-.019532.921875-.058594 4.128906-.503906 7.066406-4.257813 6.5625-8.386719-.398438-3.246094-.558594-6.574219-.476563-9.894531.015625-.699219.042969-1.402344.078125-2.105469 1.355469-25.445313 16.339844-48.371094 39.128906-59.875l7.589844-3.300781c2.589844-.949219 5.324219-1.761719 8.125-2.421875l13.636719-2.894531c3.082031 11.96875 8.585937 23.382812 16.570313 33.238281 13.804687 17.035156 32.609374 26.921875 52.953124 27.835937 1.011719.046875 2.023438.070313 3.027344.070313 18.265625 0 35.503906-7.453125 48.835938-21.179688 11.800781-12.152343 25.316406-38.894531 27.550781-49.25.4375-2.023437.023437-4.140625-1.148437-5.847656-1.171876-1.710937-2.996094-2.859375-5.042969-3.179687-7.308594-1.148438-14.191407-3.789063-20.425781-7.625l29.171874-6.1875c3.332032-.707032 5.777344-3.5625 5.957032-6.964844 1.925781-36.234375 12.996094-64.253906 32.90625-83.289063 14.789062-14.140625 29.285156-17.832031 29.394531-17.859375 3.253906-.769531 5.613281-3.59375 5.789063-6.929687 1.128906-21.230469 5.171874-28.4375 6.738281-29.5625 3.191406 1.84375 8.742187 13.585937 11.648437 24.769531.628906 2.425781 2.421875 4.382812 4.785156 5.214844l102.820313 36.246094c.539063 12.3125-.496094 34.671874-9.296875 45.675781l-94.679688-11.253907c-2.175781-.257812-4.363281.445313-5.980468 1.929688-1.617188 1.484375-2.507813 3.601562-2.433594 5.792969l.597656 18.238281c.136719 4.15625 3.613282 7.410156 7.773438 7.28125 4.15625-.136719 7.414062-3.621094 7.277344-7.773438l-.308594-9.480468 89.734375 10.667968c2.164062.261719 4.335937-.433593 5.949219-1.898437 20.082031-18.230469 16.503906-60.609375 16.03125-65.378906zm-435.484376 141.398437c-14.765624-11.207031-20.386718-31.371094-13.003906-48.761718 5.8125-13.691407 4.042969-29.703126-4.621094-41.792969l-10.085937-14.082031 14.246094-1.121094c9.027343-.710938 17.636719 2.78125 23.617187 9.582031 5.980469 6.804687 8.34375 15.789063 6.476563 24.65625-.023438.109375-.042969.21875-.0625.332031l-2.828125 17.277344c-1.960938 11.96875-1.203125 24.269531 2.175781 35.886719-6.140625 5.261719-11.492187 11.335937-15.914063 18.023437zm179.871094 4.777344c-11.023437 11.347656-25.367187 17.226562-40.382812 16.554688-15.980469-.71875-30.871094-8.628907-41.925782-22.269532-7.933593-9.792968-12.941406-21.417968-15.082031-33.453125-.027343-.257812-.070312-.515625-.125-.773437-.003906-.019532-.007812-.035156-.011719-.054688-2.808593-16.847656 0-34.433594 8.34375-48.882812.546876 3.089844 1.285157 6.375 2.289063 9.71875 6.261719 20.824218 19.542969 33.878906 38.417969 37.753906.507812.105469 1.019531.15625 1.519531.15625 3.5 0 6.636719-2.453125 7.371094-6.015625.835937-4.074219-1.789063-8.054687-5.863281-8.890625-13.191407-2.710938-22.246094-11.785156-26.910157-26.980469-3.359375-10.933593-3.277343-21.441406-3.207031-23.792969.058594-.226562.132812-.445312.175781-.671874 5.015625-28.113282 25.160157-48.847657 50.125-51.589844.285157-.03125.570313-.0625.859375-.085938-8.699218 15.539063-12.441406 34.15625-10.382812 52.890625 3.808594 34.65625 26.296875 62.859375 55.964844 71.539063-4.507813 10.691406-13.859376 27.3125-21.175782 34.847656zm70.101563-163.4375c-26.992188 25.300781-35.636719 60.933594-37.882813 88.285156l-34.902344 7.402344c-5.101562-5.902344-9.285156-12.847656-12.296874-20.53125.753906-.261719 1.511718-.527344 2.261718-.789062 20.285156-7.027344 33.019532-11.632813 38.929688-17.546876 7.054687-7.054687 8.167968-16.941406 9.457031-28.390624 1.253906-11.128907 2.671875-23.738282 9.472656-38.054688 3.8125-8.027344 12.84375-12.097656 26.84375-12.097656h.367188c9.335937.046875 18.800781 1.917968 25.367187 3.5625-6.816406 2.863281-17.136718 8.335937-27.617187 18.160156zm0 0"/></svg>