<?xml version="1.0" standalone="no"?>
<!DOCTYPE svg PUBLIC "-//W3C//DTD SVG 20010904//EN"
 "http://www.w3.org/TR/2001/REC-SVG-20010904/DTD/svg10.dtd">
<svg version="1.0" xmlns="http://www.w3.org/2000/svg"
 width="700.000000pt" height="700.000000pt" viewBox="0 0 700.000000 700.000000"
 preserveAspectRatio="xMidYMid meet">
<metadata>
Created by potrace 1.14, written by Peter Selinger 2001-2017
</metadata>
<g transform="translate(0.000000,700.000000) scale(0.100000,-0.100000)"
fill="#000000" stroke="none">
<path d="M569 6998 c-1 -2 -2 -124 -3 -273 l-2 -270 -283 -677 -282 -677 2
-216 c1 -144 6 -230 14 -259 37 -123 119 -224 229 -281 37 -19 74 -35 82 -35
12 0 14 -193 14 -1392 0 -766 0 -1736 0 -2155 l0 -763 2754 0 c2615 0 2755 1
2760 18 2 9 14 67 26 127 29 147 25 140 68 153 20 7 64 24 96 40 l59 28 111
-74 c61 -41 116 -76 123 -79 11 -4 453 428 453 444 0 3 -34 58 -77 121 -68
103 -75 118 -66 141 22 56 67 166 70 170 1 2 55 14 120 27 65 13 128 26 141
29 l22 5 0 320 c0 249 -3 320 -12 321 -7 0 -20 2 -28 4 -8 1 -64 12 -125 24
-103 20 -135 35 -135 64 0 5 -13 39 -30 77 -16 38 -30 73 -30 78 0 5 34 60 75
122 41 62 75 116 75 119 0 3 -100 106 -222 228 l-223 223 -121 -80 -120 -81
-70 31 c-38 17 -83 37 -99 44 -28 13 -32 20 -47 102 -9 49 -22 112 -28 139
l-11 50 -269 0 c-175 0 -271 3 -273 10 -2 9 -1 1321 2 1351 1 6 22 19 49 29
128 49 234 167 272 305 8 28 14 123 15 255 l1 210 -33 83 c-51 129 -152 371
-179 430 -13 29 -24 57 -24 62 0 6 -5 18 -10 28 -6 9 -30 64 -53 122 -70 170
-238 572 -253 607 -11 24 -14 91 -14 302 l0 271 -2255 0 c-1240 0 -2256 -1
-2256 -2z m4282 -233 c1 -5 2 -56 3 -112 l1 -103 -2032 0 -2033 0 0 109 c0 64
4 111 10 113 27 9 4050 2 4051 -7z m-3775 -448 c3 -3 -78 -257 -180 -564
l-186 -559 -210 0 c-144 -1 -210 3 -210 10 0 9 87 223 140 344 6 12 14 32 19
45 5 12 16 38 24 57 8 19 27 64 41 100 15 36 31 74 36 85 5 11 52 123 104 249
52 126 99 232 105 235 12 8 309 6 317 -2z m576 -18 c-2 -18 -250 -1029 -268
-1089 -3 -13 -35 -16 -219 -16 -118 0 -215 2 -215 5 0 3 84 256 186 562 134
405 190 559 202 561 8 2 83 3 166 2 l151 -1 -3 -24z m477 16 c6 -3 9 -9 7 -13
-2 -4 -7 -47 -11 -97 -3 -49 -8 -106 -10 -125 -2 -19 -6 -71 -10 -115 -3 -44
-8 -100 -10 -125 -2 -25 -7 -76 -10 -115 -6 -90 -15 -199 -20 -250 -2 -22 -6
-83 -10 -135 -4 -52 -9 -102 -11 -110 -1 -8 -3 -20 -3 -26 -1 -7 -68 -10 -213
-10 -136 1 -213 5 -212 11 3 20 105 431 113 455 5 14 44 168 87 342 56 231 81
318 92 320 29 6 210 0 221 -7z m581 -556 l0 -565 -221 0 -220 0 6 85 c3 47 8
104 10 126 2 22 7 72 10 110 5 65 12 145 20 240 2 22 6 78 10 125 4 47 8 101
10 120 2 19 7 77 10 128 4 51 8 101 10 110 2 9 4 31 4 49 1 39 -3 38 198 38
l153 0 0 -566z m567 557 c9 -8 9 -11 17 -126 7 -90 10 -129 21 -245 3 -27 7
-81 10 -120 3 -38 8 -92 10 -120 2 -27 7 -86 10 -130 4 -44 8 -96 10 -115 4
-32 15 -178 19 -240 l1 -25 -213 -1 c-141 0 -215 3 -220 10 -4 6 -7 259 -7
561 l0 550 24 5 c37 7 310 4 318 -4z m472 -5 c7 -10 281 -1097 281 -1112 0 -7
-417 -6 -423 1 -3 3 -8 46 -12 95 -3 50 -8 106 -10 125 -2 19 -6 73 -10 120
-3 47 -8 101 -10 120 -2 19 -7 73 -10 120 -3 47 -8 101 -10 120 -2 19 -7 71
-10 115 -6 86 -12 152 -21 242 -3 32 -1 59 4 62 20 12 223 5 231 -8z m570 3
c10 -10 371 -1091 371 -1109 0 -8 -58 -11 -214 -12 l-214 0 -32 128 c-17 71
-33 137 -35 147 -6 31 -185 746 -199 799 -8 29 -10 53 -5 55 22 7 321 0 328
-8z m575 5 c1 -2 26 -62 56 -134 29 -71 61 -148 70 -170 30 -69 340 -815 340
-818 0 -2 -95 -3 -212 -2 l-211 0 -187 560 c-103 308 -184 562 -180 565 9 6
319 4 324 -1z m-4218 -1492 c-2 -122 -5 -148 -23 -182 -89 -170 -321 -169
-404 1 -18 39 -22 65 -23 172 -1 70 0 133 2 140 3 9 57 12 227 11 l223 -1 -2
-141z m679 13 c0 -90 -4 -138 -16 -173 -63 -187 -318 -201 -412 -22 -18 34
-21 60 -23 182 l-2 143 227 -3 226 -2 0 -125z m676 53 c2 -240 -20 -302 -127
-353 -112 -52 -241 -8 -301 103 -14 25 -18 63 -21 179 l-4 147 226 1 226 0 1
-77z m679 -52 c0 -149 -14 -201 -66 -255 -116 -120 -319 -75 -372 83 -7 19
-12 93 -12 167 l0 133 225 0 225 0 0 -128z m677 -14 c-3 -156 -14 -193 -74
-249 -109 -104 -302 -64 -358 75 -13 31 -18 76 -20 167 -1 69 0 130 3 137 3 9
61 12 228 12 l223 0 -2 -142z m675 130 c11 -31 0 -264 -14 -297 -37 -87 -115
-139 -209 -141 -68 -2 -123 24 -172 81 -46 54 -54 92 -55 244 l0 125 223 1
c169 0 224 -3 227 -13z m678 -125 c0 -115 -4 -144 -20 -181 -82 -179 -328
-177 -411 4 -15 33 -19 65 -19 177 l0 138 225 0 225 0 0 -138z m680 6 c-1
-142 -10 -185 -51 -236 -64 -80 -169 -105 -271 -64 -43 17 -102 84 -116 129
-11 36 -16 154 -13 270 l1 31 225 1 225 1 0 -132z m-2807 -3934 c1208 1 1816
-2 1813 -9 -2 -5 -38 -62 -80 -125 l-76 -115 211 -211 c127 -127 206 -213 197
-215 -11 -4 -4070 -4 -4103 0 -7 1 -10 683 -9 2034 1 1117 2 2035 3 2038 0 4
24 15 52 25 28 10 76 39 107 64 l57 46 5 -1766 5 -1766 1818 0z m-1096 3496
c96 -84 235 -124 360 -103 79 14 174 59 226 108 42 38 52 42 64 22 16 -27 104
-86 160 -107 82 -32 208 -35 287 -9 63 22 149 73 180 108 11 11 22 21 26 21 3
0 24 -16 45 -34 169 -151 410 -152 588 -4 l47 39 48 -40 c169 -142 389 -146
569 -10 l65 49 45 -39 c99 -88 247 -129 366 -102 l37 9 0 -833 0 -832 -180
-181 -181 -182 81 -119 80 -120 -27 -63 c-34 -82 -38 -86 -52 -48 -17 50 -95
153 -150 199 -77 65 -155 95 -553 214 l-373 112 -1 100 -1 100 42 45 c89 97
134 180 172 321 11 38 13 560 3 599 -5 19 -13 52 -18 73 -24 92 -91 203 -172
285 -99 99 -205 155 -355 189 -43 9 -188 10 -233 1 -65 -13 -172 -48 -202 -66
-82 -49 -112 -72 -170 -132 -94 -95 -161 -221 -186 -350 -9 -50 -11 -484 -2
-552 17 -126 85 -269 172 -362 l46 -50 0 -102 0 -102 -47 -12 c-27 -7 -52 -14
-58 -16 -98 -26 -655 -199 -689 -214 -141 -60 -253 -184 -307 -340 -21 -61
-22 -84 -25 -385 -2 -176 -3 -328 -4 -338 0 -16 -10 -17 -112 -15 l-112 3 -1
1565 c0 861 1 1575 3 1587 4 19 8 20 35 12 106 -30 274 18 374 108 21 18 40
33 41 33 2 0 24 -18 49 -40z m3479 -60 c34 -16 67 -30 73 -30 8 0 11 -224 11
-844 l0 -843 -61 -27 -60 -26 -47 32 c-26 17 -49 35 -52 39 -4 6 -5 1789 -1
1796 0 1 18 -13 38 -32 21 -19 66 -48 99 -65z m-2074 -400 c158 -40 289 -164
334 -316 14 -49 17 -100 17 -299 0 -219 -2 -246 -22 -302 -61 -179 -210 -295
-397 -310 -213 -17 -403 119 -467 335 -21 69 -23 469 -3 552 38 162 157 286
321 335 53 16 164 19 217 5z m2753 -1277 c5 -27 9 -52 11 -58 2 -11 9 -43 19
-97 6 -34 12 -39 49 -49 116 -30 211 -68 294 -118 29 -17 57 -31 63 -31 5 0
53 29 107 65 l97 65 94 -94 95 -95 -67 -101 -67 -100 44 -83 c49 -91 86 -184
106 -265 9 -40 17 -53 34 -56 11 -3 45 -10 74 -15 28 -6 73 -16 100 -21 l47
-11 -1 -122 c-1 -67 -2 -127 -3 -133 0 -7 -27 -17 -58 -23 -32 -5 -69 -13 -83
-16 -14 -2 -40 -8 -58 -11 -18 -4 -37 -15 -43 -25 -5 -11 -7 -19 -5 -19 3 0
-10 -45 -29 -100 -33 -92 -57 -145 -108 -228 l-20 -34 32 -44 c17 -25 31 -47
31 -49 0 -3 16 -27 35 -54 19 -26 35 -51 35 -55 0 -3 -41 -47 -91 -98 -68 -69
-94 -90 -105 -82 -8 5 -54 35 -104 67 l-89 58 -62 -36 c-80 -47 -114 -61 -234
-99 l-100 -32 -25 -119 -25 -118 -129 -1 c-149 -2 -135 -12 -161 124 -9 47
-18 92 -21 101 -3 11 -34 24 -92 40 -48 12 -138 49 -200 81 l-113 57 -100 -66
-100 -67 -94 95 -95 94 65 97 c36 54 65 102 65 107 0 6 -13 32 -28 58 -52 89
-91 185 -121 299 l-11 42 -93 18 c-50 10 -95 19 -99 20 -5 1 -17 2 -28 3 -19
1 -20 8 -20 135 0 120 2 135 18 140 9 2 55 12 102 21 122 23 124 24 138 86 18
79 60 184 104 259 21 37 38 72 38 78 0 5 -29 54 -66 107 l-65 96 95 95 94 94
104 -68 c102 -69 103 -69 128 -52 46 32 154 83 235 110 44 15 82 27 85 27 3 0
15 3 27 7 25 8 27 13 48 126 10 54 17 86 21 103 5 15 20 17 139 17 l133 0 7
-47z m-2968 -167 c83 -16 192 -12 272 9 32 8 61 15 63 15 3 0 5 -22 7 -50 l2
-49 -110 -111 c-60 -60 -113 -110 -118 -110 -5 0 -59 51 -120 113 -118 120
-112 109 -104 200 1 5 9 6 20 2 10 -3 49 -11 88 -19z m-72 -436 c99 -99 183
-180 188 -180 5 0 89 81 188 180 98 99 183 180 187 180 29 0 785 -236 818
-255 49 -29 96 -80 124 -135 22 -44 23 -42 -40 -58 l-35 -8 0 -317 0 -317 40
-9 c28 -6 -23 -9 -170 -8 l-209 2 -1 280 0 279 -110 0 -110 0 -3 -282 -2 -282
-678 2 -677 3 0 275 c1 151 -2 277 -6 280 -6 4 -169 5 -214 1 -6 -1 -9 -100
-7 -281 l2 -280 -225 0 -225 0 -1 148 c-1 324 2 469 12 507 16 59 43 105 85
148 64 65 74 69 659 242 44 13 107 33 140 43 33 11 67 20 75 21 8 1 96 -80
195 -179z m2388 -1724 c29 -13 69 -29 90 -36 36 -11 67 -53 52 -68 -6 -6 -373
-10 -392 -4 -13 4 164 129 185 131 7 0 37 -10 65 -23z"/>
<path d="M790 564 l0 -114 113 0 114 0 -2 108 c-1 59 -3 110 -4 113 0 3 -50 6
-111 6 l-110 1 0 -114z"/>
<path d="M1244 566 l1 -111 110 0 110 0 3 110 3 111 -115 1 -114 0 2 -111z"/>
<path d="M1694 564 l-1 -114 114 0 113 0 0 113 0 113 -113 1 -112 1 -1 -114z"/>
<path d="M5412 2248 c-34 -5 -100 -22 -145 -38 -78 -29 -187 -87 -187 -100 0
-12 120 -175 128 -174 4 0 41 17 82 37 41 20 95 41 120 46 74 17 236 8 302
-16 219 -80 368 -276 382 -501 6 -113 -30 -254 -85 -333 l-19 -27 93 -65 c105
-76 95 -78 152 33 125 247 114 533 -31 772 -74 122 -214 246 -346 306 -125 57
-297 81 -446 60z"/>
<path d="M4851 1865 c-160 -263 -137 -626 54 -875 116 -150 309 -272 471 -295
21 -3 46 -8 54 -11 31 -11 191 -4 266 11 72 15 231 82 276 117 16 12 12 21
-49 105 l-65 93 -28 -20 c-95 -68 -271 -101 -403 -76 -165 31 -328 156 -400
306 -41 87 -57 156 -57 244 0 112 22 184 98 327 3 7 -146 115 -171 125 -7 2
-27 -19 -46 -51z"/>
</g>
</svg>
